# xmcd
#
# Track frame offsets: 
#        150
#        13348
#        33746
#        52569
#        66442
#        88415
#        102738
#        120136
#        140084
#        165207
#        186807
#        204280
#
# Disc length: 3227 seconds
#
# Revision: 0
# Processed by: cddbd v1.5.2PL0 Copyright (c) Steve Scherf et al.
# Submitted via: ExactAudioCopy v0.95b3
#
DISCID=a30c990c
DTITLE=The Boogaloo Kings - Boogaloo Lady
DYEAR=1900
DGENRE=Blues
TTITLE0=Boogaloo Kings
TTITLE1=Mellows Boogie
TTITLE2=That's How Strong My Love Is
TTITLE3=Night Club Harpman
TTITLE4=Foolin' Me
TTITLE5=Heartbreak Blues
TTITLE6=I.R.S.
TTITLE7=Oh Girl
TTITLE8=Boogaloo Lady
TTITLE9=Tennessee Woman
TTITLE10=Anytime
TTITLE11=Mellows Blues
EXTD=
EXTT0=
EXTT1=
EXTT2=
EXTT3=
EXTT4=
EXTT5=
EXTT6=
EXTT7=
EXTT8=
EXTT9=
EXTT10=
EXTT11=
PLAYORDER=
